<svg width="19" height="19" viewBox="0 0 19 19" fill="none" xmlns="http://www.w3.org/2000/svg">
<path d="M7.12502 2.94733C5.35037 3.35195 3.79777 4.42018 2.78561 5.93299C1.77344 7.4458 1.3784 9.28853 1.68152 11.0833M7.12502 2.94733L4.75002 1.97913M7.12502 2.94733L6.33335 5.14579M15.0923 13.0625C15.5813 12.0785 15.8349 10.9945 15.8333 9.89579C15.8333 6.36496 13.266 3.435 9.89585 2.86896M15.0923 13.0625L17.4167 11.4791M15.0923 13.0625L13.8542 10.6875M2.78352 13.8541C3.43402 14.829 4.3152 15.6281 5.34879 16.1805C6.38238 16.7329 7.53639 17.0216 8.70835 17.0208C10.4614 17.023 12.1533 16.3767 13.4583 15.2063M2.78352 13.8541H5.54168M2.78352 13.8541V16.625" stroke="#F202FF" stroke-width="1.5" stroke-linecap="round" stroke-linejoin="round"/>
</svg>
