<svg width="285" height="347" viewBox="0 0 285 347" fill="none" xmlns="http://www.w3.org/2000/svg">
<g filter="url(#filter0_f_1_4)">
<path d="M278.938 244.041C326.23 215.977 387.638 231.652 415.997 279.441C444.356 327.23 428.692 388.64 381.399 416.704C334.106 444.768 272.699 429.094 244.34 381.305C215.981 333.516 231.645 272.106 278.938 244.041Z" stroke="url(#paint0_linear_1_4)" stroke-width="60"/>
</g>
<g filter="url(#filter1_f_1_4)">
<path d="M278.938 244.041C326.23 215.977 387.638 231.652 415.997 279.441C444.356 327.23 428.692 388.64 381.399 416.704C334.106 444.768 272.699 429.094 244.34 381.305C215.981 333.516 231.645 272.106 278.938 244.041Z" stroke="url(#paint1_linear_1_4)" stroke-width="60"/>
</g>
<g style="mix-blend-mode:screen" filter="url(#filter2_f_1_4)">
<path d="M278.938 244.041C326.23 215.977 387.638 231.652 415.997 279.441C444.356 327.23 428.692 388.64 381.399 416.704C334.106 444.768 272.699 429.094 244.34 381.305C215.981 333.516 231.645 272.106 278.938 244.041Z" stroke="url(#paint2_linear_1_4)" stroke-width="60"/>
</g>
<g filter="url(#filter3_f_1_4)">
<path d="M278.938 244.041C326.23 215.977 387.638 231.652 415.997 279.441C444.356 327.23 428.692 388.64 381.399 416.704C334.106 444.768 272.699 429.094 244.34 381.305C215.981 333.516 231.645 272.106 278.938 244.041Z" stroke="url(#paint3_linear_1_4)" stroke-width="60"/>
</g>
<g filter="url(#filter4_ii_1_4)">
<path d="M278.938 244.041C326.23 215.977 387.638 231.652 415.997 279.441C444.356 327.23 428.692 388.64 381.399 416.704C334.106 444.768 272.699 429.094 244.34 381.305C215.981 333.516 231.645 272.106 278.938 244.041Z" stroke="url(#paint4_linear_1_4)" stroke-width="60"/>
</g>
<defs>
<filter id="filter0_f_1_4" x="0.192871" y="0.116669" width="659.951" height="660.512" filterUnits="userSpaceOnUse" color-interpolation-filters="sRGB">
<feFlood flood-opacity="0" result="BackgroundImageFix"/>
<feBlend mode="normal" in="SourceGraphic" in2="BackgroundImageFix" result="shape"/>
<feGaussianBlur stdDeviation="100" result="effect1_foregroundBlur_1_4"/>
</filter>
<filter id="filter1_f_1_4" x="30.1929" y="30.1167" width="599.951" height="600.512" filterUnits="userSpaceOnUse" color-interpolation-filters="sRGB">
<feFlood flood-opacity="0" result="BackgroundImageFix"/>
<feBlend mode="normal" in="SourceGraphic" in2="BackgroundImageFix" result="shape"/>
<feGaussianBlur stdDeviation="85" result="effect1_foregroundBlur_1_4"/>
</filter>
<filter id="filter2_f_1_4" x="90.1929" y="90.1167" width="479.951" height="480.512" filterUnits="userSpaceOnUse" color-interpolation-filters="sRGB">
<feFlood flood-opacity="0" result="BackgroundImageFix"/>
<feBlend mode="normal" in="SourceGraphic" in2="BackgroundImageFix" result="shape"/>
<feGaussianBlur stdDeviation="55" result="effect1_foregroundBlur_1_4"/>
</filter>
<filter id="filter3_f_1_4" x="180.193" y="180.117" width="299.951" height="300.512" filterUnits="userSpaceOnUse" color-interpolation-filters="sRGB">
<feFlood flood-opacity="0" result="BackgroundImageFix"/>
<feBlend mode="normal" in="SourceGraphic" in2="BackgroundImageFix" result="shape"/>
<feGaussianBlur stdDeviation="10" result="effect1_foregroundBlur_1_4"/>
</filter>
<filter id="filter4_ii_1_4" x="200.193" y="200.117" width="259.951" height="260.512" filterUnits="userSpaceOnUse" color-interpolation-filters="sRGB">
<feFlood flood-opacity="0" result="BackgroundImageFix"/>
<feBlend mode="normal" in="SourceGraphic" in2="BackgroundImageFix" result="shape"/>
<feColorMatrix in="SourceAlpha" type="matrix" values="0 0 0 0 0 0 0 0 0 0 0 0 0 0 0 0 0 0 127 0" result="hardAlpha"/>
<feOffset/>
<feGaussianBlur stdDeviation="20"/>
<feComposite in2="hardAlpha" operator="arithmetic" k2="-1" k3="1"/>
<feColorMatrix type="matrix" values="0 0 0 0 1 0 0 0 0 1 0 0 0 0 1 0 0 0 0.5 0"/>
<feBlend mode="normal" in2="shape" result="effect1_innerShadow_1_4"/>
<feColorMatrix in="SourceAlpha" type="matrix" values="0 0 0 0 0 0 0 0 0 0 0 0 0 0 0 0 0 0 127 0" result="hardAlpha"/>
<feOffset/>
<feGaussianBlur stdDeviation="37.5"/>
<feComposite in2="hardAlpha" operator="arithmetic" k2="-1" k3="1"/>
<feColorMatrix type="matrix" values="0 0 0 0 1 0 0 0 0 1 0 0 0 0 1 0 0 0 0.25 0"/>
<feBlend mode="normal" in2="effect1_innerShadow_1_4" result="effect2_innerShadow_1_4"/>
</filter>
<linearGradient id="paint0_linear_1_4" x1="437.538" y1="536.262" x2="420.656" y2="-36.0491" gradientUnits="userSpaceOnUse">
<stop stop-color="#AB0CF4"/>
<stop offset="0.172346" stop-color="#939D09"/>
<stop offset="0.625494" stop-color="#8E075D"/>
<stop offset="0.694477" stop-color="#389164"/>
</linearGradient>
<linearGradient id="paint1_linear_1_4" x1="437.538" y1="536.262" x2="420.656" y2="-36.0491" gradientUnits="userSpaceOnUse">
<stop stop-color="#AB0CF4"/>
<stop offset="0.172346" stop-color="#939D09"/>
<stop offset="0.625494" stop-color="#8E075D"/>
<stop offset="0.694477" stop-color="#389164"/>
</linearGradient>
<linearGradient id="paint2_linear_1_4" x1="437.538" y1="536.262" x2="420.656" y2="-36.0491" gradientUnits="userSpaceOnUse">
<stop stop-color="#AB0CF4"/>
<stop offset="0.172346" stop-color="#939D09"/>
<stop offset="0.625494" stop-color="#8E075D"/>
<stop offset="0.694477" stop-color="#389164"/>
</linearGradient>
<linearGradient id="paint3_linear_1_4" x1="437.538" y1="536.262" x2="420.656" y2="-36.0491" gradientUnits="userSpaceOnUse">
<stop stop-color="#AB0CF4"/>
<stop offset="0.172346" stop-color="#939D09"/>
<stop offset="0.625494" stop-color="#8E075D"/>
<stop offset="0.694477" stop-color="#389164"/>
</linearGradient>
<linearGradient id="paint4_linear_1_4" x1="437.538" y1="536.262" x2="420.656" y2="-36.0491" gradientUnits="userSpaceOnUse">
<stop stop-color="#AB0CF4"/>
<stop offset="0.172346" stop-color="#939D09"/>
<stop offset="0.625494" stop-color="#8E075D"/>
<stop offset="0.694477" stop-color="#389164"/>
</linearGradient>
</defs>
</svg>
