<svg width="94" height="94" viewBox="0 0 94 94" fill="none" xmlns="http://www.w3.org/2000/svg">
<path d="M47 8.8125C25.944 8.8125 8.8125 25.944 8.8125 47C8.8125 68.056 25.944 85.1875 47 85.1875C68.056 85.1875 85.1875 68.056 85.1875 47C85.1875 25.944 68.056 8.8125 47 8.8125ZM47 14.6875C64.8159 14.6875 79.3125 29.1841 79.3125 47C79.3125 64.8159 64.8159 79.3125 47 79.3125C29.1841 79.3125 14.6875 64.8159 14.6875 47C14.6875 29.1841 29.1841 14.6875 47 14.6875ZM54.4759 27.8651L43.1519 39.1863L54.7991 50.8393L58.4827 47.1557L50.4692 39.1745L54.4671 35.1766L66.1202 46.8267L54.4671 58.4739L52.7928 56.8054L49.1532 60.4831L54.4671 65.7941L73.4375 46.8384L54.4759 27.8651ZM39.5299 28.1941L20.5625 47.1616L39.5299 66.129L50.8452 54.7844L39.198 43.1343L35.5144 46.8179L43.5279 54.7961L39.5123 58.8088L27.8651 47.1616L39.5123 35.5085L41.1867 37.1829L44.8439 33.5286L39.5299 28.1941Z" fill="#F202FF"/>
</svg>
