<svg width="96" height="96" viewBox="0 0 96 96" fill="none" xmlns="http://www.w3.org/2000/svg">
<path d="M78.24 48.392L84.368 59C85.5967 61.1283 86.2436 63.5424 86.2436 65.9999C86.2436 68.4574 85.5968 70.8716 84.3681 72.9999C83.1394 75.1281 81.3721 76.8955 79.2439 78.1243C77.1156 79.353 74.7015 80 72.244 80H63.996V90L43.996 76L63.996 62V72H72.244C73.2972 72 74.3318 71.7227 75.2439 71.1961C76.156 70.6695 76.9134 69.9121 77.44 69C77.9666 68.0878 78.2438 67.0532 78.2438 66C78.2438 64.9468 77.9666 63.9121 77.44 63L71.312 52.392L78.24 48.392ZM29.216 36.536L31.336 60.856L22.676 55.856L18.556 63C18.0296 63.9118 17.7523 64.9461 17.7521 65.999C17.752 67.0519 18.0288 68.0862 18.5549 68.9982C19.0811 69.9102 19.8379 70.6677 20.7494 71.1946C21.661 71.7215 22.6951 71.9993 23.748 72H35.996V80H23.748C21.2902 80.0007 18.8755 79.3542 16.7467 78.1258C14.6179 76.8973 12.8501 75.13 11.6209 73.0016C10.3917 70.8732 9.7445 68.4588 9.74434 66.0009C9.74418 63.5431 10.3911 61.1286 11.62 59L15.744 51.852L7.08398 46.856L29.216 36.536ZM55 11.876C57.1266 13.1053 58.8924 14.8724 60.12 17L64.248 24.144L72.908 19.144L70.784 43.464L48.66 33.144L57.32 28.144L53.196 21C52.6694 20.088 51.9119 19.3306 50.9999 18.8041C50.0878 18.2775 49.0532 18.0003 48 18.0003C46.9468 18.0003 45.9122 18.2775 45.0001 18.8041C44.088 19.3306 43.3306 20.088 42.804 21L36.672 31.612L29.744 27.612L35.872 17C37.7285 13.7857 40.7856 11.4402 44.3711 10.4794C47.9566 9.51848 51.7768 10.0209 54.992 11.876" fill="#F202FF"/>
</svg>
