<svg width="98" height="98" viewBox="0 0 98 98" fill="none" xmlns="http://www.w3.org/2000/svg">
<path d="M89.0983 62.965L78.89 80.6458C76.8892 84.1575 73.1733 85.995 69.4167 85.75H61.25V93.9167L51.0417 75.5417L61.25 57.1667V65.3333H72.765L63.7 49.6125L81.3808 39.4042L88.7308 52.1442C90.8542 55.2883 91.14 59.4942 89.0983 62.965ZM37.6075 12.495H58.0242C62.0258 12.495 65.4967 14.8225 67.1708 18.1708L71.2542 25.2758L78.3183 21.1925L67.5383 39.2L46.5092 39.5675L53.5733 35.4842L47.8158 25.48L38.7917 41.2008L21.07 30.9925L28.42 18.2525C30.0942 14.8633 33.565 12.495 37.6075 12.495ZM20.6208 80.6867L10.4125 63.0058C8.41167 59.535 8.6975 55.37 10.78 52.2258L14.8633 45.1617L7.79917 41.0783L28.7875 41.405L39.6083 59.4533L32.5442 55.37L26.7867 65.3333H44.9167V85.75H30.2167C28.3036 85.8885 26.3902 85.4873 24.6938 84.5922C22.9975 83.6971 21.5863 82.344 20.6208 80.6867Z" fill="#F202FF"/>
</svg>
