<svg width="88" height="88" viewBox="0 0 88 88" fill="none" xmlns="http://www.w3.org/2000/svg">
<path d="M55 40.3334C56.9449 40.3334 58.8102 41.106 60.1854 42.4812C61.5607 43.8565 62.3333 45.7218 62.3333 47.6667M73.3333 58.6667V33L62.3333 22M14.6667 73.3334V22C14.6667 19.9907 15.4733 18.172 16.7823 16.8484M29.3333 14.6667H44C45.9449 14.6667 47.8102 15.4393 49.1854 16.8146C50.5607 18.1898 51.3333 20.0551 51.3333 22V36.6667M51.3333 51.3334V73.3334M11 73.3334H55" stroke="#F202FF" stroke-width="4" stroke-linecap="round" stroke-linejoin="round"/>
<path d="M66 25.6667V29.3333C66 30.3058 66.3863 31.2384 67.0739 31.9261C67.7616 32.6137 68.6942 33 69.6667 33H73.3333M14.6667 40.3333H40.3333M11 11L77 77" stroke="#F202FF" stroke-width="4" stroke-linecap="round" stroke-linejoin="round"/>
</svg>
