<svg xmlns="http://www.w3.org/2000/svg" fill='white' width="24" height="24" viewBox="0 0 24 24">
        <path d="M24 4.557a9.813 9.813 0 0 1-2.828.775A4.925 4.925 0 0 0 23.338 3a9.944 9.944 0 0 1-3.127 1.145A4.916 4.916 0 0 0 16.617 2c-2.72 0-4.924 2.207-4.924 4.923 0 .385.043.762.126 1.124A13.975 13.975 0 0 1 1.671 3.149a4.902 4.902 0 0 0-.664 2.477c0 1.71.87 3.213 2.188 4.096A4.901 4.901 0 0 1 .964 9.69v.057c0 2.384 1.688 4.377 3.938 4.84a4.935 4.935 0 0 1-2.22.084c.628 1.953 2.448 3.377 4.601 3.42A9.86 9.86 0 0 1 0 19.54a13.929 13.929 0 0 0 7.548 2.211c9.056 0 14.004-7.506 14.004-14.004 0-.21-.005-.419-.014-.628A10.023 10.023 0 0 0 24 4.557z" />
      </svg>